<svg width="35" height="35" viewBox="0 0 35 35" fill="none" xmlns="http://www.w3.org/2000/svg">
<circle cx="17.5" cy="17.5" r="17.5" fill="url(#paint0_linear)"/>
<path d="M17.5 19.5886L27 14.2943L17.5 9L8 14.2943L17.5 19.5886Z" stroke="white"/>
<path d="M17.4998 19.5886L24.002 15.9652C24.8575 18.1444 25.1004 20.5174 24.7039 22.8255C22.0266 23.0862 19.5024 24.1985 17.4998 26C15.4975 24.1987 12.9736 23.0864 10.2967 22.8255C9.89999 20.5174 10.1428 18.1443 10.9986 15.9652L17.4998 19.5886Z" stroke="white"/>
<path d="M13.2778 25.9418V18.0003L17.5 15.6475M17.5 19.5886L27 14.2943L17.5 9L8 14.2943L17.5 19.5886ZM17.5 19.5886L24.0022 15.9652C24.8578 18.1444 25.1006 20.5174 24.7042 22.8255C22.0268 23.0862 19.5026 24.1985 17.5 26C15.4977 24.1987 12.9739 23.0864 10.2969 22.8255C9.90021 20.5174 10.143 18.1443 10.9988 15.9652L17.5 19.5886Z" stroke="white" stroke-width="1.5" stroke-linecap="round" stroke-linejoin="round"/>
<defs>
<linearGradient id="paint0_linear" x1="5.34722" y1="3.92765e-07" x2="31.5972" y2="40.3472" gradientUnits="userSpaceOnUse">
<stop stop-color="#FFC58F"/>
<stop offset="1" stop-color="#FEAA5D"/>
</linearGradient>
</defs>
</svg>
