<svg width="34" height="34" viewBox="0 0 34 34" fill="none" xmlns="http://www.w3.org/2000/svg">
<circle cx="17" cy="17" r="17" fill="url(#paint0_linear)"/>
<path d="M26.5084 13.9113C25.1374 9.68548 21.2179 7 17.004 7C15.9798 7 14.9395 7.15726 13.9112 7.49194C8.66103 9.19758 5.78594 14.8387 7.49164 20.0887C8.86265 24.3145 12.7821 27 16.996 27C18.0202 27 19.0605 26.8427 20.0888 26.5081C25.339 24.8024 28.2141 19.1613 26.5084 13.9113ZM23.5042 21.7218L21.3993 21.9798L19.6372 19.5242L20.6211 16.4919L23.4881 15.6008L25.0567 17.0685C25.0486 18.3065 24.7583 19.5323 24.1817 20.6653C23.9922 21.0403 23.7502 21.3831 23.5042 21.7218ZM23.5042 12.2298L23.0849 14.371L20.234 15.2581L17.6452 13.3831V10.4073L19.5565 9.35081C21.1372 9.875 22.5163 10.8831 23.5042 12.2298ZM14.4556 9.35484L16.3548 10.4073V13.3831L13.766 15.2581L10.9192 14.371L10.5119 12.254C11.4918 10.9073 12.8466 9.89113 14.4556 9.35484ZM12.6047 21.9798L10.4635 21.7177C9.88284 20.9073 8.95943 19.3145 8.93926 17.0685L10.5119 15.6008L13.3789 16.496L14.3588 19.4919L12.6047 21.9798ZM14.5483 24.6815L13.6451 22.7419L15.4032 20.254H18.5726L20.359 22.7419L19.4557 24.6815C19.2057 24.754 17.1331 25.504 14.5483 24.6815Z" fill="white"/>
<defs>
<linearGradient id="paint0_linear" x1="5.19444" y1="3.81543e-07" x2="30.6944" y2="39.1944" gradientUnits="userSpaceOnUse">
<stop stop-color="#87B7FF"/>
<stop offset="1" stop-color="#3E80E3"/>
</linearGradient>
</defs>
</svg>
