<svg width="33" height="33" viewBox="0 0 33 33" fill="none" xmlns="http://www.w3.org/2000/svg">
<circle cx="16.5" cy="16.5" r="16.5" fill="url(#paint0_linear)"/>
<path d="M23.0312 11.75H9.96875C8.98499 11.75 8.1875 12.5475 8.1875 13.5312V21.8438C8.1875 22.8275 8.98499 23.625 9.96875 23.625H23.0312C24.015 23.625 24.8125 22.8275 24.8125 21.8438V13.5312C24.8125 12.5475 24.015 11.75 23.0312 11.75Z" stroke="white" stroke-linejoin="round"/>
<path d="M18.875 15.9062V16.7969C18.875 16.8756 18.8437 16.9511 18.788 17.0068C18.7324 17.0625 18.6569 17.0938 18.5781 17.0938H14.4219C14.3431 17.0938 14.2676 17.0625 14.212 17.0068C14.1563 16.9511 14.125 16.8756 14.125 16.7969V15.9062M12.3438 11.75V10.5625C12.3438 10.2476 12.4689 9.94551 12.6916 9.72281C12.9143 9.50011 13.2163 9.375 13.5312 9.375H19.4688C19.7837 9.375 20.0857 9.50011 20.3084 9.72281C20.5311 9.94551 20.6562 10.2476 20.6562 10.5625V11.75H12.3438ZM24.8125 15.9062H8.1875H24.8125Z" stroke="white" stroke-linecap="round" stroke-linejoin="round"/>
<defs>
<linearGradient id="paint0_linear" x1="5.04167" y1="3.70321e-07" x2="29.7917" y2="38.0417" gradientUnits="userSpaceOnUse">
<stop stop-color="#FB6D71"/>
<stop offset="1" stop-color="#D8373C"/>
</linearGradient>
</defs>
</svg>
